<?xml version="1.0" standalone="no"?>
<!DOCTYPE svg PUBLIC "-//W3C//DTD SVG 20010904//EN"
 "http://www.w3.org/TR/2001/REC-SVG-20010904/DTD/svg10.dtd">
<svg version="1.0" xmlns="http://www.w3.org/2000/svg"
 width="343.000000pt" height="135.000000pt" viewBox="0 0 343.000000 135.000000"
 preserveAspectRatio="xMidYMid meet">

<g transform="translate(0.000000,135.000000) scale(0.100000,-0.100000)"
fill="#000000" stroke="none">
<path d="M0 675 l0 -675 1715 0 1715 0 0 675 0 675 -1715 0 -1715 0 0 -675z
m1500 11 l0 -404 27 -20 c16 -11 25 -24 20 -28 -8 -9 -95 -22 -149 -23 -37 -1
-38 0 -38 34 0 19 -3 35 -6 35 -3 0 -20 -11 -38 -25 -75 -57 -142 -68 -213
-34 -92 44 -149 151 -147 274 2 115 42 180 141 230 62 32 146 40 226 21 l37
-8 0 83 c0 98 -14 133 -53 137 -52 6 -29 32 76 81 56 27 105 50 110 50 4 1 7
-181 7 -403z m-882 177 c33 -82 87 -213 120 -293 94 -229 131 -300 163 -319
16 -9 29 -22 29 -29 0 -10 -31 -12 -140 -10 -141 3 -162 9 -119 36 25 16 21
52 -16 136 l-24 55 -93 3 c-51 2 -112 2 -136 0 -41 -3 -44 -5 -67 -59 -32 -72
-31 -88 5 -125 17 -16 30 -34 30 -39 0 -12 -197 -12 -205 0 -3 6 4 15 17 22
54 29 61 42 149 264 22 55 68 165 103 245 35 80 73 171 86 203 12 31 26 57 30
57 4 0 34 -66 68 -147z m1802 -148 c0 -30 3 -55 6 -55 3 0 23 13 43 29 50 39
115 71 147 71 33 0 92 -28 104 -49 26 -45 26 -45 56 -24 59 41 114 63 160 63
39 0 51 -5 79 -33 46 -46 55 -89 55 -265 0 -157 5 -184 42 -210 10 -7 18 -17
18 -23 0 -10 -233 -13 -244 -2 -3 4 5 16 19 27 24 20 25 26 31 166 8 178 -1
223 -50 247 -37 17 -88 12 -120 -12 -18 -14 -20 -28 -18 -196 1 -168 3 -184
22 -204 11 -12 17 -25 13 -28 -10 -10 -223 -8 -223 2 0 5 11 16 25 25 l25 16
0 176 c0 172 0 175 -25 199 -30 31 -87 33 -133 5 l-34 -21 4 -175 3 -176 28
-22 c15 -12 24 -25 21 -29 -10 -10 -242 -9 -248 1 -3 5 8 19 24 31 l30 22 0
182 c0 194 -7 227 -50 227 -38 0 -30 19 12 30 24 6 70 21 103 35 33 13 63 24
68 24 4 1 7 -24 7 -54z m-439 30 c102 -36 119 -76 119 -278 0 -164 2 -172 50
-179 24 -3 23 -5 -18 -35 -41 -30 -134 -59 -153 -47 -5 3 -9 15 -9 28 0 36 -8
36 -62 3 -45 -28 -60 -32 -124 -32 -63 0 -76 3 -99 25 -38 35 -55 73 -55 119
0 75 54 113 235 166 49 14 90 27 92 29 2 2 1 28 -3 57 -10 73 -45 109 -107
109 -54 0 -71 -17 -62 -59 12 -55 -54 -99 -106 -71 -24 13 -25 59 -3 101 33
65 201 100 305 64z m1366 -411 c21 -21 24 -32 19 -62 -11 -70 -83 -96 -131
-47 -25 24 -34 77 -17 101 27 40 93 44 129 8z"/>
<path d="M1202 699 c-42 -9 -88 -52 -103 -97 -16 -50 -6 -159 19 -209 31 -60
87 -103 135 -103 52 0 94 26 101 63 3 16 6 90 6 163 0 121 -2 136 -20 154 -11
11 -23 20 -27 20 -5 0 -24 4 -43 8 -19 5 -50 5 -68 1z"/>
<path d="M437 651 c-26 -65 -47 -125 -47 -134 0 -22 22 -27 127 -27 72 0 94 3
90 13 -45 106 -110 254 -116 259 -4 4 -28 -46 -54 -111z"/>
<path d="M1865 479 c-67 -26 -95 -59 -95 -110 0 -59 37 -93 94 -87 23 3 54 13
69 23 26 17 27 21 27 106 0 86 -1 89 -22 88 -13 0 -45 -9 -73 -20z"/>
</g>
</svg>
